<svg width="1553" height="489" viewBox="0 0 1553 489" fill="none" xmlns="http://www.w3.org/2000/svg">
<g filter="url(#filter0_f_1_98)">
<path d="M213.572 166.601C122.277 169.068 160.086 186.334 126.888 237.208C67.8686 263.847 123.199 299.695 195.128 297.639C340.832 303.497 505.901 309.664 552.009 323.23C598.118 336.797 552.009 342.655 666.359 370.096C780.708 397.537 727.222 385.204 872.003 378.42C1016.78 371.637 1111.77 328.472 1299.89 270.507C1488.01 212.542 1249.17 230.424 1139.43 243.991C1029.69 257.557 954.077 271.432 907.968 277.29C861.86 283.148 864.626 291.781 740.133 277.29C615.639 262.799 681.114 201.442 666.359 187.259C651.604 173.076 633.161 159.201 505.901 153.035C404.093 148.102 427.823 183.251 452.415 201.442C464.403 202.367 491.884 213.405 505.901 250.157C519.918 286.91 396.162 265.471 332.532 250.157C303.023 233.713 251.012 198.112 279.046 187.259C314.089 173.693 304.867 164.135 213.572 166.601Z" fill="#849134" fill-opacity="0.5"/>
</g>
<g filter="url(#filter1_f_1_98)">
<path d="M294.723 116.036C203.428 118.503 241.237 135.769 208.039 186.642C149.02 213.282 204.35 249.129 276.28 247.074C421.983 252.932 587.052 259.099 633.161 272.665C679.269 286.231 633.161 292.089 747.51 319.53C861.86 346.971 808.374 334.638 953.155 327.855C1097.94 321.072 1192.92 277.906 1381.04 219.941C1569.17 161.976 1330.32 179.859 1220.58 193.425C1110.85 206.992 1035.23 220.866 989.119 226.725C943.011 232.583 945.777 241.216 821.284 226.725C696.791 212.233 762.265 150.877 747.51 136.694C732.755 122.511 714.312 108.636 587.052 102.47C485.244 97.5364 508.975 132.685 533.566 150.877C545.554 151.802 573.035 162.84 587.052 199.592C601.069 236.344 477.313 214.905 413.683 199.592C384.174 183.148 332.163 147.547 360.197 136.694C395.24 123.127 386.018 113.569 294.723 116.036Z" fill="#1A7A58" fill-opacity="0.5"/>
</g>
<defs>
<filter id="filter0_f_1_98" x="0.400002" y="50.9652" width="1471.05" height="437.77" filterUnits="userSpaceOnUse" color-interpolation-filters="sRGB">
<feFlood flood-opacity="0" result="BackgroundImageFix"/>
<feBlend mode="normal" in="SourceGraphic" in2="BackgroundImageFix" result="shape"/>
<feGaussianBlur stdDeviation="50.8" result="effect1_foregroundBlur_1_98"/>
</filter>
<filter id="filter1_f_1_98" x="81.5512" y="0.400002" width="1471.05" height="437.77" filterUnits="userSpaceOnUse" color-interpolation-filters="sRGB">
<feFlood flood-opacity="0" result="BackgroundImageFix"/>
<feBlend mode="normal" in="SourceGraphic" in2="BackgroundImageFix" result="shape"/>
<feGaussianBlur stdDeviation="50.8" result="effect1_foregroundBlur_1_98"/>
</filter>
</defs>
</svg>
