<svg width="65" height="64" viewBox="0 0 65 64" fill="none" xmlns="http://www.w3.org/2000/svg">
<path d="M12.5363 17C12.5363 14.0826 13.6952 11.2847 15.7581 9.22183C17.821 7.15893 20.6189 6 23.5363 6C26.4537 6 29.2516 7.15893 31.3145 9.22183C33.3774 11.2847 34.5363 14.0826 34.5363 17C34.5363 19.9174 33.3774 22.7153 31.3145 24.7782C29.2516 26.8411 26.4537 28 23.5363 28C20.6189 28 17.821 26.8411 15.7581 24.7782C13.6952 22.7153 12.5363 19.9174 12.5363 17ZM38.5363 23C38.5363 21.8181 38.7691 20.6478 39.2214 19.5558C39.6737 18.4639 40.3366 17.4718 41.1724 16.636C42.0081 15.8003 43.0002 15.1374 44.0922 14.6851C45.1841 14.2328 46.3544 14 47.5363 14C48.7182 14 49.8885 14.2328 50.9805 14.6851C52.0724 15.1374 53.0646 15.8003 53.9003 16.636C54.736 17.4718 55.3989 18.4639 55.8512 19.5558C56.3035 20.6478 56.5363 21.8181 56.5363 23C56.5363 25.3869 55.5881 27.6761 53.9003 29.364C52.2125 31.0518 49.9233 32 47.5363 32C45.1494 32 42.8602 31.0518 41.1724 29.364C39.4845 27.6761 38.5363 25.3869 38.5363 23ZM4.53632 51C4.53632 45.9609 6.5381 41.1282 10.1013 37.565C13.6645 34.0018 18.4972 32 23.5363 32C28.5754 32 33.4082 34.0018 36.9713 37.565C40.5345 41.1282 42.5363 45.9609 42.5363 51V51.008L42.5336 51.3253C42.528 51.6645 42.4362 51.9966 42.2668 52.2905C42.0975 52.5844 41.8562 52.8304 41.5657 53.0053C36.1235 56.2826 29.889 58.0097 23.5363 58C16.9443 58 10.7736 56.176 5.50965 53.0053C5.21859 52.8307 4.97676 52.5848 4.80695 52.2909C4.63713 51.997 4.54492 51.6647 4.53898 51.3253L4.53632 51ZM46.5363 51.008L46.5337 51.392C46.5187 52.2808 46.3065 53.1552 45.9123 53.952C50.5675 54.2391 55.2174 53.311 59.4057 51.2587C59.7295 51.1003 60.0046 50.8574 60.2018 50.5556C60.3989 50.2537 60.5108 49.9042 60.5257 49.544C60.6198 47.3073 60.1347 45.0842 59.1174 43.09C58.1002 41.0958 56.5851 39.3981 54.7191 38.1613C52.8531 36.9246 50.6993 36.1906 48.4663 36.0306C46.2334 35.8706 43.997 36.2899 41.9736 37.248C44.9422 41.2176 46.5423 46.0433 46.5337 51L46.5363 51.008Z" fill="white"/>
</svg>
