<svg width="65" height="64" viewBox="0 0 65 64" fill="none" xmlns="http://www.w3.org/2000/svg">
<path d="M28.1951 23.3226C28.8005 22.8426 29.5205 22.4933 30.2911 22.272V29.7253C29.5304 29.517 28.8182 29.1609 28.1951 28.6773C27.1445 27.8426 26.7391 26.8613 26.7391 26C26.7391 25.1386 27.1445 24.1573 28.1951 23.3226ZM34.2911 41.7653V34.2346C35.2165 34.4613 36.0618 34.8426 36.7471 35.3573C37.8858 36.2106 38.2911 37.1866 38.2911 38C38.2911 38.8133 37.8858 39.7893 36.7471 40.6426C36.0121 41.1774 35.1768 41.5609 34.2911 41.7653Z" fill="white"/>
<path fill-rule="evenodd" clip-rule="evenodd" d="M32.2911 6C17.9311 6 6.29113 17.64 6.29113 32C6.29113 46.36 17.9311 58 32.2911 58C46.6511 58 58.2911 46.36 58.2911 32C58.2911 17.64 46.6511 6 32.2911 6ZM34.2911 16C34.2911 15.4696 34.0804 14.9609 33.7053 14.5858C33.3303 14.2107 32.8216 14 32.2911 14C31.7607 14 31.252 14.2107 30.8769 14.5858C30.5018 14.9609 30.2911 15.4696 30.2911 16V18.176C28.6188 18.4574 27.0426 19.1502 25.7045 20.192C23.8058 21.7013 22.7391 23.792 22.7391 26C22.7391 28.2107 23.8058 30.2987 25.7071 31.808C27.0458 32.8747 28.6458 33.5333 30.2911 33.824V41.7653C29.4053 41.56 28.57 41.1782 27.8351 40.6427L25.4911 38.8827C25.281 38.7251 25.0419 38.6104 24.7875 38.5452C24.5331 38.4801 24.2683 38.4656 24.0083 38.5028C23.4832 38.5778 23.0094 38.8583 22.6911 39.2827C22.3729 39.707 22.2362 40.2404 22.3112 40.7655C22.3862 41.2906 22.6668 41.7644 23.0911 42.0827L25.4351 43.8427C26.8565 44.9093 28.5525 45.5627 30.2911 45.8427V48C30.2911 48.5304 30.5018 49.0391 30.8769 49.4142C31.252 49.7893 31.7607 50 32.2911 50C32.8216 50 33.3303 49.7893 33.7053 49.4142C34.0804 49.0391 34.2911 48.5304 34.2911 48V45.84C36.0473 45.5761 37.7135 44.8908 39.1471 43.8427C41.1338 42.352 42.2911 40.2587 42.2911 38C42.2911 35.7413 41.1338 33.648 39.1471 32.1573C37.7138 31.1081 36.0476 30.4218 34.2911 30.1573V22.2773C35.0645 22.496 35.7818 22.8453 36.3871 23.3253L37.4938 24.2053C37.9093 24.5353 38.4389 24.6866 38.966 24.6261C39.4931 24.5656 39.9745 24.2982 40.3045 23.8827C40.6344 23.4672 40.7858 22.9376 40.7252 22.4105C40.6647 21.8834 40.3973 21.4019 39.9818 21.072L38.8751 20.192C37.5375 19.1515 35.9623 18.4597 34.2911 18.1787V16Z" fill="white"/>
</svg>
