<svg width="65" height="64" viewBox="0 0 65 64" fill="none" xmlns="http://www.w3.org/2000/svg">
<path d="M42.7597 22C43.2901 22 43.7988 22.2107 44.1739 22.5858C44.549 22.9609 44.7597 23.4696 44.7597 24C44.7597 26.9867 43.4477 29.6693 41.373 31.4987C41.178 31.6829 40.9478 31.826 40.6963 31.9194C40.4448 32.0129 40.177 32.0548 39.909 32.0426C39.6409 32.0304 39.3781 31.9644 39.136 31.8485C38.894 31.7326 38.6778 31.5692 38.5003 31.3681C38.3227 31.1669 38.1875 30.932 38.1026 30.6775C38.0177 30.423 37.9848 30.1539 38.0061 29.8865C38.0273 29.619 38.1021 29.3585 38.2261 29.1205C38.3501 28.8826 38.5206 28.672 38.7277 28.5013C39.3674 27.939 39.8795 27.2465 40.23 26.4702C40.5804 25.6939 40.761 24.8517 40.7597 24C40.7597 23.4696 40.9704 22.9609 41.3455 22.5858C41.7206 22.2107 42.2293 22 42.7597 22Z" fill="white"/>
<path fill-rule="evenodd" clip-rule="evenodd" d="M32.7597 6C18.3997 6 6.7597 17.64 6.7597 32C6.7597 46.36 18.3997 58 32.7597 58C47.1197 58 58.7597 46.36 58.7597 32C58.7597 17.64 47.1197 6 32.7597 6ZM12.9597 41.6C15.1471 46.114 18.8113 49.745 23.3451 51.8912C27.8789 54.0373 33.0099 54.5696 37.8877 53.4C37.5128 52.4014 36.8423 51.541 35.9655 50.9335C35.0888 50.3259 34.0477 50.0003 32.981 50C32.3601 50.0002 31.7593 49.7799 31.2856 49.3785C30.8119 48.9771 30.4961 48.4205 30.3944 47.808L30.1997 46.6427C29.949 45.136 30.8664 43.6827 32.333 43.264L34.973 42.512C36.1117 42.184 37.061 41.3973 37.5917 40.336L37.6877 40.1413C37.9623 39.5919 38.3636 39.1155 38.8586 38.7517C39.3535 38.3878 39.9278 38.1469 40.5342 38.0487C41.1406 37.9505 41.7616 37.9979 42.3461 38.1869C42.9306 38.376 43.4617 38.7013 43.8957 39.136L44.7597 40H46.4344C47.5194 39.9998 48.5842 40.2938 49.5154 40.8507C50.4465 41.4076 51.2093 42.2066 51.7224 43.1627C53.6019 39.9702 54.6447 36.3547 54.7542 32.6517C54.8638 28.9486 54.0364 25.2779 52.3488 21.9799C50.6612 18.6819 48.1682 15.8634 45.1008 13.786C42.0334 11.7085 38.4911 10.4393 34.8024 10.096C34.9197 10.7947 35.2824 11.4373 35.8397 11.8987L38.6877 14.272C39.8664 15.256 40.1144 16.9653 39.2637 18.2453L37.9037 20.288C37.1631 21.3979 36.0737 22.2293 34.8077 22.6507L34.4264 22.7787C33.9961 22.9225 33.6047 23.1637 33.2828 23.4833C32.9608 23.8029 32.7168 24.1925 32.5698 24.6217C32.4227 25.0509 32.3766 25.5082 32.435 25.9582C32.4934 26.4081 32.6547 26.8385 32.9064 27.216C33.8904 28.696 33.357 30.7013 31.7677 31.496L24.7597 35L25.8877 37.824C26.1152 38.3976 26.127 39.0342 25.9208 39.6157C25.7146 40.1973 25.3045 40.6844 24.7665 40.9866C24.2286 41.2888 23.5993 41.3856 22.9953 41.2591C22.3914 41.1326 21.8538 40.7914 21.4824 40.2987L19.6717 37.8827C19.3648 37.4737 18.9585 37.15 18.4914 36.9422C18.0242 36.7344 17.5117 36.6495 17.0025 36.6954C16.4933 36.7414 16.0043 36.9167 15.5819 37.2048C15.1595 37.4928 14.8177 37.8841 14.589 38.3413L12.9597 41.6Z" fill="white"/>
</svg>
